<svg width="73" height="75" viewBox="0 0 73 75" fill="none" xmlns="http://www.w3.org/2000/svg">
<mask id="mask0_18_333" style="mask-type:luminance" maskUnits="userSpaceOnUse" x="-1" y="0" width="76" height="75">
<path d="M74.1699 0H-0.830078V75H74.1699V0Z" fill="white"/>
</mask>
<g mask="url(#mask0_18_333)">
<mask id="mask1_18_333" style="mask-type:luminance" maskUnits="userSpaceOnUse" x="-1" y="0" width="76" height="75">
<path d="M-0.830078 0H74.1699V75H-0.830078V0Z" fill="white"/>
</mask>
<g mask="url(#mask1_18_333)">
</g>
<g clip-path="url(#clip0_18_333)">
<path d="M32.5963 11.9448C21.1959 11.9448 11.9541 21.1866 11.9541 32.587C11.9541 43.9874 21.1959 53.2292 32.5963 53.2292C43.9967 53.2292 53.2384 43.9874 53.2384 32.587C53.226 21.1918 43.9915 11.9572 32.5963 11.9448ZM32.5963 13.9107C38.668 13.9155 44.3578 16.8747 47.8479 21.8432L45.3905 24.3006C44.7925 23.9388 44.1078 23.7451 43.4088 23.7404C41.2374 23.7404 39.477 25.5007 39.477 27.6722C39.4804 28.3719 39.673 29.0577 40.0343 29.6568L33.5979 36.0932C32.3792 35.3501 30.8475 35.3501 29.6287 36.0932L25.1582 31.6227C25.5196 31.0236 25.7121 30.3379 25.7156 29.6381C25.7183 27.4709 23.9637 25.7119 21.7965 25.7092C20.0042 25.707 18.4382 26.9194 17.9914 28.6552H14.3447C16.2058 20.0608 23.8027 13.9236 32.5963 13.9107ZM45.3748 27.6722C45.3748 28.758 44.4946 29.6381 43.4088 29.6381C42.323 29.6381 41.4429 28.758 41.4429 27.6722C41.4429 26.5864 42.323 25.7063 43.4088 25.7063C44.4946 25.7063 45.3748 26.5864 45.3748 27.6722ZM33.5792 39.4677C33.5792 40.5535 32.6991 41.4336 31.6133 41.4336C30.5275 41.4336 29.6474 40.5535 29.6474 39.4677C29.6474 38.3819 30.5275 37.5018 31.6133 37.5018C32.6991 37.5018 33.5792 38.3819 33.5792 39.4677ZM23.7496 29.6381C23.7496 30.7239 22.8695 31.604 21.7837 31.604C20.6979 31.604 19.8178 30.7239 19.8178 29.6381C19.8178 28.5523 20.6979 27.6722 21.7837 27.6722C22.8695 27.6722 23.7496 28.5523 23.7496 29.6381ZM41.6707 48.9172C38.8948 50.4585 35.7715 51.266 32.5963 51.2631C22.2887 51.2701 13.927 42.92 13.92 32.6124C13.9195 31.9472 13.9547 31.2824 14.0252 30.621H17.9914C18.4383 32.3516 19.9963 33.5631 21.7837 33.5698C22.4835 33.5664 23.1692 33.3739 23.7683 33.0125L28.2388 37.483C27.8775 38.0821 27.6849 38.7679 27.6815 39.4676C27.6815 41.6391 29.4418 43.3994 31.6133 43.3994C33.7848 43.3994 35.5452 41.6391 35.5452 39.4676C35.5417 38.7679 35.3492 38.0821 34.9878 37.483L41.4242 31.0466C42.0234 31.4079 42.7091 31.6005 43.4088 31.6039C45.5803 31.6039 47.3407 29.8436 47.3407 27.6721C47.3372 26.9723 47.1447 26.2866 46.7833 25.6875L48.9262 23.5456C53.9289 32.5554 50.6804 43.9146 41.6707 48.9172Z" fill="#FF4533"/>
<path d="M57.1704 17.8425C58.9577 17.8358 60.5157 16.6244 60.9626 14.8936H67V12.9277H60.9626C60.5157 11.197 58.9577 9.9856 57.1704 9.97884C54.9989 9.97884 53.2385 11.7392 53.2385 13.9107C53.242 14.6104 53.4345 15.2962 53.7958 15.8953L52.0688 17.6223C43.8052 6.85635 28.3786 4.82776 17.6126 13.0914C6.84658 21.355 4.818 36.7817 13.0816 47.5477C20.8819 57.7099 35.1804 60.1751 45.9332 53.2114L48.8997 56.178L50.2896 57.5679L58.2025 65.4807C60.215 67.4932 63.4776 67.4932 65.4901 65.4807C67.5026 63.4682 67.5026 60.2056 65.4901 58.1931L57.5773 50.2802L56.1874 48.8903L53.2208 45.9237C58.4869 37.8124 58.4869 27.3616 53.2208 19.2501L55.1867 17.2842C55.7855 17.6457 56.471 17.8386 57.1704 17.8425ZM57.1704 11.9448C58.2562 11.9448 59.1363 12.8249 59.1363 13.9107C59.1363 14.9965 58.2562 15.8766 57.1704 15.8766C56.0846 15.8766 55.2044 14.9965 55.2044 13.9107C55.2044 12.8249 56.0847 11.9448 57.1704 11.9448ZM64.1002 59.583C65.3592 60.8136 65.3821 62.8319 64.1515 64.0908C62.9208 65.3498 60.9025 65.3727 59.6436 64.1421C59.6263 64.1252 59.6093 64.1082 59.5924 64.0908L51.6795 56.178L56.1874 51.6701L64.1002 59.583ZM54.7975 50.2802L50.2896 54.7881L47.5688 52.0673C47.7074 51.9611 47.8371 51.8441 47.9738 51.735C48.1104 51.6259 48.2687 51.4952 48.4151 51.3723C48.6304 51.1914 48.8427 51.0086 49.0511 50.8209C49.1582 50.7226 49.2605 50.6243 49.3656 50.526C49.7687 50.1485 50.1589 49.7583 50.5364 49.3553C50.6347 49.2501 50.7329 49.1479 50.8312 49.0407C51.019 48.8323 51.2018 48.62 51.3827 48.4047C51.5059 48.2593 51.6268 48.1122 51.7454 47.9634C51.8535 47.8277 51.9705 47.698 52.0767 47.5594L54.7975 50.2802ZM50.9856 45.7144C50.6759 46.1469 50.3565 46.5705 50.0193 46.9785C49.921 47.0974 49.8158 47.2124 49.7146 47.3294C49.4138 47.6793 49.1032 48.0188 48.7828 48.3477C48.6432 48.4919 48.5013 48.6338 48.3571 48.7734C48.0294 49.0938 47.6901 49.4044 47.3388 49.7052C47.2218 49.8035 47.1068 49.9106 46.9879 50.0099C46.5799 50.3471 46.1563 50.6665 45.7238 50.9762C35.5482 58.2458 21.4059 55.89 14.1363 45.7144C6.86673 35.5388 9.22252 21.3965 19.3981 14.1269C29.5737 6.85733 43.716 9.21299 50.9856 19.3887C56.6107 27.2625 56.6107 37.8406 50.9856 45.7144Z" fill="white"/>
</g>
</g>
<defs>
<clipPath id="clip0_18_333">
<rect width="59" height="59" fill="white" transform="translate(8 8)"/>
</clipPath>
</defs>
</svg>
