<svg width="72" height="75" viewBox="0 0 72 75" fill="none" xmlns="http://www.w3.org/2000/svg">
<mask id="mask0_18_362" style="mask-type:luminance" maskUnits="userSpaceOnUse" x="-2" y="0" width="76" height="75">
<path d="M73.5 0H-1.5V75H73.5V0Z" fill="white"/>
</mask>
<g mask="url(#mask0_18_362)">
<mask id="mask1_18_362" style="mask-type:luminance" maskUnits="userSpaceOnUse" x="-2" y="0" width="76" height="75">
<path d="M-1.5 0H73.5V75H-1.5V0Z" fill="white"/>
</mask>
<g mask="url(#mask1_18_362)">
<path d="M60.0195 65.4394H11.9805C9.82203 65.4394 8.07227 63.6897 8.07227 61.5312V13.4922C8.07227 11.3338 9.82203 9.58398 11.9805 9.58398H60.0195C62.178 9.58398 63.9277 11.3338 63.9277 13.4922V61.5312C63.9277 63.6897 62.178 65.4394 60.0195 65.4394Z" stroke="white" stroke-width="2.09302" stroke-linecap="round" stroke-linejoin="round"/>
<path d="M63.5789 18.5444H8.07227" stroke="white" stroke-width="2.09302" stroke-linecap="round" stroke-linejoin="round"/>
<path d="M23.418 14.064H23.4417" stroke="#FF4533" stroke-width="2.61628" stroke-linecap="round" stroke-linejoin="round"/>
<path d="M13.5986 14.064H13.6224" stroke="#FF4533" stroke-width="2.61628" stroke-linecap="round" stroke-linejoin="round"/>
<path d="M18.5078 14.064H18.5315" stroke="#FF4533" stroke-width="2.61628" stroke-linecap="round" stroke-linejoin="round"/>
<path d="M25.3242 40.8318L23.5677 39.8344C22.6815 39.3313 22.3718 38.205 22.8748 37.3189L25.0402 33.5046C25.5432 32.6184 26.6695 32.3087 27.5557 32.8117L29.3122 33.8091C30.091 33.1914 30.9577 32.6776 31.8916 32.2925L31.8773 30.2745C31.8701 29.2559 32.6909 28.4234 33.7095 28.4161L38.096 28.385C39.1146 28.3777 39.9472 29.1986 39.9544 30.2172L39.9688 32.2351C40.9081 32.607 41.782 33.1083 42.5695 33.715L44.3117 32.6927C45.1906 32.1754 46.3212 32.4708 46.8367 33.3498L49.0561 37.1329C49.5734 38.0118 49.2779 39.1425 48.399 39.658L46.6568 40.6803C46.7283 41.1699 46.7702 41.6685 46.7738 42.176C46.7775 42.6836 46.7426 43.1844 46.6781 43.6732L48.4346 44.6707C49.3208 45.1737 49.6305 46.3 49.1275 47.1862L46.9621 51.0005C46.4591 51.8866 45.3328 52.1964 44.4466 51.6934L42.6901 50.6959C41.9113 51.3137 41.0446 51.8274 40.1107 52.2125L40.125 54.2305C40.1322 55.2491 39.3114 56.0817 38.2928 56.0889L33.9063 56.1201C32.8877 56.1273 32.0551 55.3065 32.0479 54.2879L32.0335 52.2699C31.0942 51.8981 30.2203 51.3967 29.4328 50.7901L27.6906 51.8124C26.8117 52.3279 25.6811 52.0342 25.1656 51.1553L22.9462 47.3721C22.4289 46.4932 22.7244 45.3626 23.6033 44.847L25.3455 43.8248C25.274 43.3351 25.2321 42.8366 25.2285 42.329C25.2249 41.8215 25.2597 41.3206 25.3242 40.8318ZM30.4905 42.2917C30.5121 45.3352 32.9976 47.7856 36.0412 47.764C39.0847 47.7424 41.5351 45.2569 41.5135 42.2134C41.4919 39.1698 39.0064 36.7194 35.9629 36.741C32.9194 36.7626 30.4689 39.2481 30.4905 42.2917Z" stroke="#FF4533" stroke-width="2.09302" stroke-linecap="round" stroke-linejoin="round"/>
</g>
</g>
</svg>
